<?xml version="1.0" encoding="utf-8" standalone="yes"?>
<!DOCTYPE svg PUBLIC "-//W3C//DTD SVG 1.1//EN" "http://www.w3.org/Graphics/SVG/1.1/DTD/svg11.dtd">
<svg xmlns:dc="http://purl.org/dc/elements/1.1/" xmlns:cc="http://web.resource.org/cc/" xmlns:rdf="http://www.w3.org/1999/02/22-rdf-syntax-ns#" xmlns:svg="http://www.w3.org/2000/svg" xmlns="http://www.w3.org/2000/svg" xmlns:xlink="http://www.w3.org/1999/xlink" height="101.08912" width="100.16671" version="1.1">
  <defs>
    <linearGradient id="lg0">
      <stop style="stop-color:#fff;stop-opacity:0"/>
      <stop style="stop-color:#fff;stop-opacity:0.57547170" offset="1"/>
    </linearGradient>
    <linearGradient id="lg1">
      <stop style="stop-color:#000;stop-opacity:0"/>
      <stop style="stop-color:#000;stop-opacity:0.25471699" offset="0.72131145"/>
      <stop style="stop-color:#000;stop-opacity:0.1254902" offset="0.91000003"/>
      <stop style="stop-color:#000;stop-opacity:0" offset="1"/>
    </linearGradient>
    <linearGradient id="lg2">
      <stop style="stop-color:#fff;stop-opacity:0"/>
      <stop style="stop-color:#fff;stop-opacity:0.85849059" offset="0.72000003"/>
      <stop style="stop-color:#fff;stop-opacity:0.70754719" offset="0.89999998"/>
      <stop style="stop-color:#fff;stop-opacity:0.32075471" offset="1"/>
    </linearGradient>
    <metadata>
      <rdf:RDF>
        <cc:Work>
          <dc:format>image/svg+xml</dc:format>
          <dc:type rdf:resource="http://purl.org/dc/dcmitype/StillImage"/>
          <dc:title>OOo 2.0 applications icons</dc:title>
          <dc:description>OpenOffice.org 2.0 applications icons recreated as vector graphics byChristopheCombelles with Inkscape 0.41, and cleaned up using gedit.</dc:description>
          <cc:license rdf:resource="http://creativecommons.org/licenses/GPL/2.0/"/>
        </cc:Work>
        <cc:License rdf:about="http://creativecommons.org/licenses/GPL/2.0/">
          <cc:permits rdf:resource="http://web.resource.org/cc/Reproduction"/>
          <cc:permits rdf:resource="http://web.resource.org/cc/Distribution"/>
          <cc:requires rdf:resource="http://web.resource.org/cc/Notice"/>
          <cc:permits rdf:resource="http://web.resource.org/cc/DerivativeWorks"/>
          <cc:requires rdf:resource="http://web.resource.org/cc/ShareAlike"/>
          <cc:requires rdf:resource="http://web.resource.org/cc/SourceCode"/>
        </cc:License>
      </rdf:RDF>
    </metadata>
    <linearGradient xlink:href="#lg1" id="lg3" gradientUnits="userSpaceOnUse" gradientTransform="matrix(1.579005,0,0,-0.725788,485.7033,-212.7072)" x1="68.374298" y1="-410.09869" x2="67.91217" y2="-478.5079"/>
    <linearGradient xlink:href="#lg2" id="lg4" gradientUnits="userSpaceOnUse" gradientTransform="matrix(4.79835,0,0,2.868897,-1354.79,-757.4729)" x1="406.06488" y1="290.50256" x2="406.06485" y2="276.29453"/>
    <linearGradient xlink:href="#lg0" id="lg5" gradientUnits="userSpaceOnUse" gradientTransform="matrix(4.593774,0,0,0.359494,-1921.25,645.6879)" x1="436.48828" y1="-278.91284" x2="436.5119" y2="-299.88681"/>
  </defs>
  <g transform="translate(-537.7543,-34.1283)">
    <path style="fill:#1d4458;stroke-width:1.25" d="M537.7543,34.128392L 634.27136,34.128392C 648.64623,65.72087 614.55721,103.92094 634.27136,135.10046L 537.7543,135.10046L 537.7543,34.128392z"/>
    <path style="fill:#000" d="M596.25,27.53125C 587.9033,27.701471 579.93436,30.011449 573.84375,35.03125C 565.49276,31.223728 554.44432,30.751141 544.375,32.28125C 538.97209,33.102263 533.8987,34.480363 529.6875,36.34375C 525.4884,38.201779 521.99675,40.484175 520.1875,43.8125C 519.57732,44.883163 519.7128,46.206199 520.46875,47.15625C 521.22471,48.106278 522.5049,48.470375 523.65625,48.125C 544.63433,42.131263 561.86554,43.038041 573.6875,52.875C 574.80806,53.806374 576.46471,53.801852 577.5625,52.84375C 587.80668,43.812696 604.05857,37.910216 621.5625,38.875C 622.98852,38.943575 624.2874,37.997938 624.625,36.625C 624.96264,35.252044 624.25302,33.783013 622.96875,33.1875C 614.73544,29.461107 605.28688,27.346954 596.25,27.53125z" transform="matrix(0.927767,-0.214911,0.214911,0.927767,46.81138,177.0661)"/>
    <path style="fill:#000" d="M602.125,190.59375C 599.45874,190.67075 596.74504,191.16798 594.53125,192.78125C 591.5146,192.34561 588.3664,192.55749 585.5,193.6875C 583.62824,194.43267 582.15635,195.77855 580.96875,197.34375C 580.95544,197.36301 580.94492,197.38405 580.9375,197.40625C 580.92091,197.43509 580.91029,197.46697 580.90625,197.5C 580.91029,197.53303 580.92091,197.56491 580.9375,197.59375C 580.94492,197.61595 580.95544,197.63699 580.96875,197.65625C 580.97822,197.66757 580.98868,197.67803 581,197.6875C 581.02605,197.71524 581.05813,197.73662 581.09375,197.75C 581.12472,197.75595 581.15653,197.75595 581.1875,197.75C 581.20825,197.75263 581.22925,197.75263 581.25,197.75C 584.80749,196.49944 588.39295,195.15225 592.15625,195.5C 593.28385,195.58867 594.35616,196.00271 595.46875,196.375C 595.50974,196.38565 595.55276,196.38565 595.59375,196.375C 595.62678,196.37096 595.65866,196.36034 595.6875,196.34375C 595.7097,196.33633 595.73074,196.32581 595.75,196.3125C 598.71379,193.45164 603.00891,192.72955 606.96875,191.90625C 606.98007,191.89678 606.99053,191.88632 607,191.875C 607.19563,191.80037 607.32956,191.73576 607.4375,191.625C 607.49147,191.56962 607.55414,191.50784 607.5625,191.40625C 607.57086,191.30466 607.51945,191.21518 607.46875,191.15625C 607.36735,191.03839 607.25573,190.98239 607.125,190.9375C 606.99427,190.89261 606.8215,190.87546 606.65625,190.84375C 605.99526,190.71692 605.12704,190.6454 604.8125,190.625C 604.80209,190.62434 604.79166,190.62434 604.78125,190.625C 603.91011,190.58739 603.02603,190.56773 602.125,190.59375z" transform="matrix(3.174111,0,0,3.174111,-1302.762,-543.6996)"/>
    <path d="M545.7779,80.443027C 561.8043,74.300769 576.3735,72.493967 587.29776,77.34722C 596.22672,68.649803 615.94832,63.90385 622.32783,63.890166C 599.15349,61.399183 589.55615,66.673287 584.95833,70.119134C 570.04841,68.31728 556.08667,69.928623 545.77824,80.441435" style="fill:#fff"/>
    <path d="M541.48749,106.83459C 561.64503,95.45359 577.97171,93.394856 591.8094,100.31953C 601.00442,85.583017 624.2397,77.050787 632.06201,76.810665C 607.82707,71.61414 591.03592,82.82878 587.97351,89.139358C 574.39453,85.391274 546.54016,94.632222 541.48715,106.83325" style="fill:#fff"/>
    <rect style="fill:url(#lg5);stroke-width:1.25" width="101.08903" height="7.9108653" x="34.128391" y="537.75427" transform="matrix(0,1,1,0,0,0)"/>
    <g transform="matrix(3.174111,0,0,3.174111,1320.666,-354.4324)">
      <path style="fill:#000;fill-opacity:0.0798122;stroke-width:1.25" d="M-218.44538,122.4156C -213.91659,132.36877 -224.6563,144.40503 -218.44538,154.2281L -216.32038,154.2281C -222.5313,144.40503 -211.79159,132.36877 -216.32038,122.4156L -218.44538,122.4156z"/>
      <path style="fill:#000;fill-opacity:0.13145537;stroke-width:1.25" d="M-217.95505,122.4156C -213.42626,132.36877 -224.16597,144.40503 -217.95505,154.2281L -216.32038,154.2281C -222.5313,144.40503 -211.79159,132.36877 -216.32038,122.4156L -217.95505,122.4156z"/>
      <path style="fill:#000;fill-opacity:0.19718311;stroke-width:1.25" d="M-217.40343,122.4156C -212.87464,132.36877 -223.61435,144.40503 -217.40343,154.2281L -216.32038,154.2281C -222.5313,144.40503 -211.79159,132.36877 -216.32038,122.4156L -217.40343,122.4156z"/>
      <path style="fill:#000;fill-opacity:0.26760565;stroke-width:1.25" d="M-216.85181,122.4156C -212.32302,132.36877 -223.06273,144.40503 -216.85181,154.2281L -216.32038,154.2281C -222.5313,144.40503 -211.79159,132.36877 -216.32038,122.4156L -216.85181,122.4156z"/>
    </g>
    <path d="M537.7543,34.128392L 633.87816,34.128392C 644.10939,52.377473 630.54342,87.271069 628.33207,101.88786L 537.7543,101.88786L 537.7543,34.128392z" style="fill:url(#lg4);stroke-width:1.25"/>
    <path style="fill:url(#lg3);stroke-width:1.25" d="M537.91943,135.10893L 633.63469,135.10893C 623.441,117.91268 628.2126,101.41435 632.69026,83.642963L 537.82175,83.309627L 537.91943,135.10893z"/>
  </g>
</svg>
