<?xml version="1.0" encoding="UTF-8" standalone="no"?>
<!-- Created with Inkscape (http://www.inkscape.org/) -->
<svg
   xmlns:svg="http://www.w3.org/2000/svg"
   xmlns="http://www.w3.org/2000/svg"
   xmlns:xlink="http://www.w3.org/1999/xlink"
   xmlns:inkscape="http://www.inkscape.org/namespaces/inkscape"
   version="1.0"
   width="128"
   height="128"
   id="svg2176">
  <defs
     id="defs2178">
    <linearGradient
       id="linearGradient9286">
      <stop
         id="stop9288"
         style="stop-color:#ffffff;stop-opacity:0.4742268"
         offset="0" />
      <stop
         id="stop9290"
         style="stop-color:#ffffff;stop-opacity:0"
         offset="1" />
    </linearGradient>
    <linearGradient
       id="linearGradient6916">
      <stop
         id="stop6918"
         style="stop-color:#f96501;stop-opacity:1"
         offset="0" />
      <stop
         id="stop6920"
         style="stop-color:#ffb481;stop-opacity:1"
         offset="1" />
    </linearGradient>
    <linearGradient
       id="linearGradient6817">
      <stop
         id="stop6819"
         style="stop-color:#ffffff;stop-opacity:1"
         offset="0" />
      <stop
         id="stop6821"
         style="stop-color:#ffffff;stop-opacity:0"
         offset="1" />
    </linearGradient>
    <linearGradient
       id="linearGradient4247">
      <stop
         id="stop4249"
         style="stop-color:#ffffff;stop-opacity:1"
         offset="0" />
      <stop
         id="stop4251"
         style="stop-color:#ffffff;stop-opacity:0"
         offset="1" />
    </linearGradient>
    <linearGradient
       id="linearGradient4237">
      <stop
         id="stop4239"
         style="stop-color:#5f7b8d;stop-opacity:1"
         offset="0" />
      <stop
         id="stop4241"
         style="stop-color:#a4b6c2;stop-opacity:1"
         offset="1" />
    </linearGradient>
    <linearGradient
       x1="68.374298"
       y1="-410.099"
       x2="67.912201"
       y2="-478.508"
       id="linearGradient5700"
       xlink:href="#linearGradient11367"
       gradientUnits="userSpaceOnUse"
       gradientTransform="matrix(1.60976,0,0,-0.739926,-42.0613,-219.488)"
       spreadMethod="pad" />
    <linearGradient
       x1="406.065"
       y1="290.50299"
       x2="406.065"
       y2="276.29501"
       id="linearGradient5698"
       xlink:href="#linearGradient7431"
       gradientUnits="userSpaceOnUse"
       gradientTransform="matrix(4.89182,0,0,2.92478,-1919.14,-772.592)"
       spreadMethod="pad" />
    <linearGradient
       x1="436.48801"
       y1="-278.91299"
       x2="436.51199"
       y2="-299.88699"
       id="linearGradient5696"
       xlink:href="#linearGradient11377"
       gradientUnits="userSpaceOnUse"
       gradientTransform="matrix(4.59378,0,0,0.359494,-1920.95,118.209)"
       spreadMethod="pad" />
    <linearGradient
       x1="406.065"
       y1="290.50299"
       x2="406.065"
       y2="276.29501"
       id="linearGradient4825"
       xlink:href="#linearGradient7431"
       gradientUnits="userSpaceOnUse"
       gradientTransform="matrix(4.79835,0,0,2.8689,-1459.05,-757.267)"
       spreadMethod="pad" />
    <linearGradient
       x1="68.374298"
       y1="-410.099"
       x2="67.912201"
       y2="-478.508"
       id="linearGradient4823"
       xlink:href="#linearGradient11367"
       gradientUnits="userSpaceOnUse"
       gradientTransform="matrix(1.57901,0,0,-0.725788,381.286,-213.027)"
       spreadMethod="pad" />
    <linearGradient
       x1="436.48801"
       y1="-278.91299"
       x2="436.51199"
       y2="-299.88699"
       id="linearGradient4821"
       xlink:href="#linearGradient11377"
       gradientUnits="userSpaceOnUse"
       gradientTransform="matrix(4.58443,0,0,0.358762,-1917.07,541.212)"
       spreadMethod="pad" />
    <linearGradient
       x1="406.065"
       y1="290.50299"
       x2="406.065"
       y2="276.29501"
       id="linearGradient4819"
       xlink:href="#linearGradient7431"
       gradientUnits="userSpaceOnUse"
       gradientTransform="matrix(4.80814,0,0,2.87475,-1569.44,-758.786)"
       spreadMethod="pad" />
    <linearGradient
       x1="68.374298"
       y1="-410.099"
       x2="67.912201"
       y2="-478.508"
       id="linearGradient4817"
       xlink:href="#linearGradient11367"
       gradientUnits="userSpaceOnUse"
       gradientTransform="matrix(1.58223,0,0,-0.727268,275.522,-213.417)"
       spreadMethod="pad" />
    <linearGradient
       x1="436.48801"
       y1="-278.91299"
       x2="436.51199"
       y2="-299.88699"
       id="linearGradient4815"
       xlink:href="#linearGradient11377"
       gradientUnits="userSpaceOnUse"
       gradientTransform="matrix(4.59378,0,0,0.359494,-1920.95,434.897)"
       spreadMethod="pad" />
    <linearGradient
       x1="68.374298"
       y1="-410.099"
       x2="67.912201"
       y2="-478.508"
       id="linearGradient4813"
       xlink:href="#linearGradient11367"
       gradientUnits="userSpaceOnUse"
       gradientTransform="matrix(1.57901,0,0,-0.725788,591.715,-212.721)"
       spreadMethod="pad" />
    <linearGradient
       x1="406.065"
       y1="290.50299"
       x2="406.065"
       y2="276.29501"
       id="linearGradient4811"
       xlink:href="#linearGradient7431"
       gradientUnits="userSpaceOnUse"
       gradientTransform="matrix(4.79835,0,0,2.8689,-1249.49,-757.473)"
       spreadMethod="pad" />
    <linearGradient
       x1="436.48801"
       y1="-278.91299"
       x2="436.51199"
       y2="-299.88699"
       id="linearGradient4809"
       xlink:href="#linearGradient11377"
       gradientUnits="userSpaceOnUse"
       gradientTransform="matrix(4.60684,0,0,0.360517,-1926.81,751.293)"
       spreadMethod="pad" />
    <linearGradient
       id="linearGradient2580">
      <stop
         id="stop2582"
         style="stop-color:#06348c;stop-opacity:1"
         offset="0" />
      <stop
         id="stop2584"
         style="stop-color:#06348c;stop-opacity:0"
         offset="1" />
    </linearGradient>
    <linearGradient
       id="linearGradient11377">
      <stop
         id="stop11379"
         style="stop-color:#ffffff;stop-opacity:0"
         offset="0" />
      <stop
         id="stop11385"
         style="stop-color:#ffffff;stop-opacity:0.575472"
         offset="1" />
    </linearGradient>
    <linearGradient
       id="linearGradient11367">
      <stop
         id="stop11369"
         style="stop-color:#000000;stop-opacity:0"
         offset="0" />
      <stop
         id="stop11371"
         style="stop-color:#000000;stop-opacity:0.25471699"
         offset="0.72131097" />
      <stop
         id="stop18428"
         style="stop-color:#000000;stop-opacity:0.12548999"
         offset="0.91000003" />
      <stop
         id="stop11375"
         style="stop-color:#000000;stop-opacity:0"
         offset="1" />
    </linearGradient>
    <linearGradient
       id="linearGradient7431">
      <stop
         id="stop7433"
         style="stop-color:#ffffff;stop-opacity:0"
         offset="0" />
      <stop
         id="stop7439"
         style="stop-color:#ffffff;stop-opacity:0.858491"
         offset="0.72000003" />
      <stop
         id="stop8224"
         style="stop-color:#ffffff;stop-opacity:0.70754701"
         offset="0.89999998" />
      <stop
         id="stop7435"
         style="stop-color:#ffffff;stop-opacity:0.320755"
         offset="1" />
    </linearGradient>
    <linearGradient
       x1="436.48801"
       y1="-278.91299"
       x2="436.51199"
       y2="-299.88699"
       id="linearGradient4274"
       xlink:href="#linearGradient11377"
       gradientUnits="userSpaceOnUse"
       gradientTransform="matrix(4.59378,0,0,0.359494,-1920.95,224.139)"
       spreadMethod="pad" />
    <linearGradient
       x1="406.065"
       y1="290.50299"
       x2="406.065"
       y2="276.29501"
       id="linearGradient4254"
       xlink:href="#linearGradient7431"
       gradientUnits="userSpaceOnUse"
       gradientTransform="matrix(4.89182,0,0,2.92478,-1813.2,-772.592)"
       spreadMethod="pad" />
    <linearGradient
       x1="68.374298"
       y1="-410.099"
       x2="67.912201"
       y2="-478.508"
       id="linearGradient4251"
       xlink:href="#linearGradient11367"
       gradientUnits="userSpaceOnUse"
       gradientTransform="matrix(1.58223,0,0,-0.727268,64.7645,-213.417)"
       spreadMethod="pad" />
    <linearGradient
       x1="436.48801"
       y1="-278.91299"
       x2="436.51199"
       y2="-299.88699"
       id="linearGradient4303"
       xlink:href="#linearGradient11377"
       gradientUnits="userSpaceOnUse"
       gradientTransform="matrix(4.58443,0,0,0.358763,-1916.77,328.765)"
       spreadMethod="pad" />
    <linearGradient
       x1="68.374298"
       y1="-410.099"
       x2="67.912201"
       y2="-478.508"
       id="linearGradient4295"
       xlink:href="#linearGradient11367"
       gradientUnits="userSpaceOnUse"
       gradientTransform="matrix(1.57901,0,0,-0.725788,169.715,-212.707)"
       spreadMethod="pad" />
    <linearGradient
       x1="406.065"
       y1="290.50299"
       x2="406.065"
       y2="276.29501"
       id="linearGradient4286"
       xlink:href="#linearGradient7431"
       gradientUnits="userSpaceOnUse"
       gradientTransform="matrix(4.79835,0,0,2.8689,-1671.49,-756.966)"
       spreadMethod="pad" />
    <linearGradient
       x1="436.48801"
       y1="-278.91299"
       x2="436.51199"
       y2="-299.88699"
       id="linearGradient3652"
       xlink:href="#linearGradient11377"
       gradientUnits="userSpaceOnUse"
       gradientTransform="matrix(4.59378,0,0,0.359494,-1920.95,434.897)"
       spreadMethod="pad" />
    <linearGradient
       x1="68.374298"
       y1="-410.099"
       x2="67.912201"
       y2="-478.508"
       id="linearGradient3654"
       xlink:href="#linearGradient11367"
       gradientUnits="userSpaceOnUse"
       gradientTransform="matrix(1.58223,0,0,-0.727268,275.522,-213.417)"
       spreadMethod="pad" />
    <filter
       x="-0.13289398"
       width="1.265788"
       y="-0.18605158"
       height="1.3721031"
       id="filter4692">
      <feGaussianBlur
         inkscape:collect="always"
         stdDeviation="0.77521489"
         id="feGaussianBlur4694" />
    </filter>
    <radialGradient
       cx="73.571426"
       cy="34.943413"
       r="7"
       fx="73.571426"
       fy="34.943413"
       id="radialGradient4696"
       xlink:href="#linearGradient4247"
       gradientUnits="userSpaceOnUse"
       gradientTransform="matrix(1.1663644,0,0,0.7142857,-12.239667,9.0204081)" />
    <clipPath
       id="clipPath5975">
      <path
         d="M 81.428573,35 C 81.428573,39.812767 77.527054,43.714286 72.714287,43.714286 C 67.90152,43.714286 64.000001,39.812767 64.000001,35 C 64.000001,30.187233 67.90152,26.285714 72.714287,26.285714 C 77.527054,26.285714 81.428573,30.187233 81.428573,35 z"
         transform="matrix(0.9453296,0,0,0.86896,4.8324571,-1.322342)"
         id="path5977"
         style="opacity:1;fill:url(#linearGradient5979);fill-opacity:1;stroke:#000000;stroke-width:0.1;stroke-linecap:square;stroke-linejoin:bevel;stroke-miterlimit:4;stroke-dasharray:none;stroke-dashoffset:0;stroke-opacity:1" />
    </clipPath>
    <linearGradient
       x1="64"
       y1="26.285713"
       x2="64"
       y2="43.714287"
       id="linearGradient5979"
       xlink:href="#linearGradient4237"
       gradientUnits="userSpaceOnUse" />
    <clipPath
       id="clipPath6831">
      <text
         x="-109.41395"
         y="-52.002251"
         id="text6833"
         xml:space="preserve"
         style="font-size:108.35978699px;font-style:normal;font-weight:normal;fill:#3a4b56;fill-opacity:1;stroke:none;stroke-width:1px;stroke-linecap:butt;stroke-linejoin:miter;stroke-opacity:1;font-family:Bitstream Vera Sans"><tspan
           x="-109.41395"
           y="-52.002251"
           id="tspan6835">W</tspan></text>
    </clipPath>
    <linearGradient
       x1="-105.81606"
       y1="-149.93086"
       x2="-105.81606"
       y2="-94.82827"
       id="linearGradient6837"
       xlink:href="#linearGradient6817"
       gradientUnits="userSpaceOnUse" />
    <linearGradient
       x1="-105.81606"
       y1="-149.93086"
       x2="-105.81606"
       y2="-94.82827"
       id="linearGradient6846"
       xlink:href="#linearGradient6817"
       gradientUnits="userSpaceOnUse" />
    <linearGradient
       x1="64"
       y1="26.285713"
       x2="64"
       y2="43.714287"
       id="linearGradient6860"
       xlink:href="#linearGradient4237"
       gradientUnits="userSpaceOnUse" />
    <radialGradient
       cx="73.571426"
       cy="34.943413"
       r="7"
       fx="73.571426"
       fy="34.943413"
       id="radialGradient6862"
       xlink:href="#linearGradient4247"
       gradientUnits="userSpaceOnUse"
       gradientTransform="matrix(1.1663644,0,0,0.7142857,-12.239667,9.0204081)" />
    <linearGradient
       x1="68.668472"
       y1="21.623802"
       x2="68.571426"
       y2="36.571426"
       id="linearGradient6864"
       xlink:href="#linearGradient4247"
       gradientUnits="userSpaceOnUse" />
    <linearGradient
       x1="64"
       y1="26.285713"
       x2="64"
       y2="43.714287"
       id="linearGradient6908"
       xlink:href="#linearGradient6916"
       gradientUnits="userSpaceOnUse" />
    <radialGradient
       cx="73.571426"
       cy="34.943413"
       r="7"
       fx="73.571426"
       fy="34.943413"
       id="radialGradient6910"
       xlink:href="#linearGradient9286"
       gradientUnits="userSpaceOnUse"
       gradientTransform="matrix(1.1663644,0,0,0.7142857,-12.239667,9.0204081)" />
    <linearGradient
       x1="-105.81606"
       y1="-149.93086"
       x2="-105.81606"
       y2="-94.82827"
       id="linearGradient6912"
       xlink:href="#linearGradient6817"
       gradientUnits="userSpaceOnUse" />
    <linearGradient
       x1="68.668472"
       y1="21.623802"
       x2="68.571426"
       y2="36.571426"
       id="linearGradient6914"
       xlink:href="#linearGradient4247"
       gradientUnits="userSpaceOnUse" />
    <linearGradient
       x1="94.337753"
       y1="30.332682"
       x2="94.337753"
       y2="37.176796"
       id="linearGradient7339"
       xlink:href="#linearGradient6817"
       gradientUnits="userSpaceOnUse" />
    <clipPath
       id="clipPath7350">
      <g
         transform="matrix(1.4606659e-2,0,0,1.4606659e-2,74.584652,31.951251)"
         id="g7352">
        <path
           d="M 1197.6327,140.1584 L 1277.49,140.1584 L 1277.49,730.39151 L 1197.6327,730.39151 L 1197.6327,140.1584"
           id="path7354"
           style="font-size:578.91394043px;font-style:normal;font-weight:normal;fill:#863600;fill-opacity:1;stroke:none;stroke-width:1px;stroke-linecap:butt;stroke-linejoin:miter;stroke-opacity:1;font-family:Bitstream Vera Sans" />
        <path
           d="M 1197.6327,140.1584 L 1197.6327,162.57449 L 1277.49,162.57449 L 1277.49,140.1584 L 1197.6327,140.1584 z"
           id="path7356"
           style="font-size:578.91394043px;font-style:normal;font-weight:normal;opacity:0.5;fill:#ffffff;fill-opacity:1;stroke:none;stroke-width:1px;stroke-linecap:butt;stroke-linejoin:miter;stroke-opacity:1;font-family:Bitstream Vera Sans" />
        <path
           d="M 1197.6327,707.97542 L 1197.6327,730.39151 L 1277.49,730.39151 L 1277.49,707.97542 L 1197.6327,707.97542 z"
           id="path7358"
           style="font-size:578.91394043px;font-style:normal;font-weight:normal;opacity:0.5;fill:#000000;fill-opacity:1;stroke:none;stroke-width:1px;stroke-linecap:butt;stroke-linejoin:miter;stroke-opacity:1;font-family:Bitstream Vera Sans" />
      </g>
    </clipPath>
    <linearGradient
       x1="94.337753"
       y1="30.332682"
       x2="94.337753"
       y2="37.176796"
       id="linearGradient7367"
       xlink:href="#linearGradient6817"
       gradientUnits="userSpaceOnUse" />
    <radialGradient
       cx="73.571426"
       cy="34.943413"
       r="7"
       fx="73.571426"
       fy="34.943413"
       id="radialGradient7369"
       xlink:href="#linearGradient9286"
       gradientUnits="userSpaceOnUse"
       gradientTransform="matrix(1.1663644,0,0,0.7142857,-12.239667,9.0204081)" />
    <filter
       id="filter7752">
      <feGaussianBlur
         inkscape:collect="always"
         stdDeviation="0.17428572"
         id="feGaussianBlur7754" />
    </filter>
    <filter
       id="filter8139">
      <feGaussianBlur
         inkscape:collect="always"
         stdDeviation="0.17428572"
         id="feGaussianBlur8141" />
    </filter>
    <filter
       id="filter3659">
      <feGaussianBlur
         inkscape:collect="always"
         stdDeviation="0.25192676"
         id="feGaussianBlur3661" />
    </filter>
  </defs>
  <g
     id="layer1">
    <g
       transform="matrix(1.1474977,0,0,1.1474977,-126.81695,-33.507504)"
       id="g4450">
      <path
         d="M 116.206,34.4298 L 212.724,34.4298 C 227.098,66.0223 193.009,104.222 212.724,135.402 L 116.206,135.402 L 116.206,34.4298 z"
         id="path18218"
         style="fill:#fcb330;fill-opacity:1;fill-rule:evenodd;stroke:none;stroke-width:1.25;stroke-linecap:round;stroke-linejoin:round;stroke-miterlimit:4;stroke-opacity:1" />
      <path
         d="M 116.206,34.4298 L 142.385,34.4298 C 156.76,66.0223 122.671,104.222 142.385,135.402 L 116.206,135.402 L 116.206,34.4298 z"
         id="path18222"
         style="fill:#1d4659;fill-opacity:1;fill-rule:evenodd;stroke:none;stroke-width:1.25;stroke-linecap:round;stroke-linejoin:round;stroke-miterlimit:4;stroke-opacity:1" />
      <rect
         width="101.089"
         height="7.9108801"
         x="34.429798"
         y="116.206"
         transform="matrix(0,1,1,0,0,0)"
         id="rect18224"
         style="fill:url(#linearGradient4274);fill-opacity:1;fill-rule:nonzero;stroke:none;stroke-width:1.25;stroke-linecap:round;stroke-linejoin:round;stroke-miterlimit:4;stroke-opacity:1" />
      <g
         transform="matrix(3.17412,0,0,3.17412,828.231,-354.132)"
         id="g18236">
        <path
           d="M -218.445,122.416 C -213.917,132.369 -224.656,144.405 -218.445,154.228 L -216.32,154.228 C -222.531,144.405 -211.792,132.369 -216.32,122.416 L -218.445,122.416 z"
           id="path18238"
           style="fill:#000000;fill-opacity:0.0798122;fill-rule:nonzero;stroke:none;stroke-width:1.25;stroke-linecap:round;stroke-linejoin:round;stroke-miterlimit:4;stroke-opacity:1" />
        <path
           d="M -217.955,122.416 C -213.426,132.369 -224.166,144.405 -217.955,154.228 L -216.32,154.228 C -222.531,144.405 -211.792,132.369 -216.32,122.416 L -217.955,122.416 z"
           id="path18240"
           style="fill:#000000;fill-opacity:0.13145501;fill-rule:nonzero;stroke:none;stroke-width:1.25;stroke-linecap:round;stroke-linejoin:round;stroke-miterlimit:4;stroke-opacity:1" />
        <path
           d="M -217.403,122.416 C -212.875,132.369 -223.614,144.405 -217.403,154.228 L -216.32,154.228 C -222.531,144.405 -211.792,132.369 -216.32,122.416 L -217.403,122.416 z"
           id="path18242"
           style="fill:#000000;fill-opacity:0.19718299;fill-rule:nonzero;stroke:none;stroke-width:1.25;stroke-linecap:round;stroke-linejoin:round;stroke-miterlimit:4;stroke-opacity:1" />
        <path
           d="M -216.852,122.416 C -212.323,132.369 -223.063,144.405 -216.852,154.228 L -216.32,154.228 C -222.531,144.405 -211.792,132.369 -216.32,122.416 L -216.852,122.416 z"
           id="path18244"
           style="fill:#000000;fill-opacity:0.26760601;fill-rule:nonzero;stroke:none;stroke-width:1.25;stroke-linecap:round;stroke-linejoin:round;stroke-miterlimit:4;stroke-opacity:1" />
      </g>
      <g
         transform="matrix(2.41517,0,0,2.41517,665.699,-197.189)"
         id="g18248">
        <path
           d="M 602.125,190.59375 C 599.45874,190.67075 596.74504,191.16798 594.53125,192.78125 C 591.5146,192.34561 588.3664,192.55749 585.5,193.6875 C 583.62824,194.43267 582.15635,195.77855 580.96875,197.34375 C 580.95544,197.36301 580.94492,197.38405 580.9375,197.40625 C 580.92091,197.43509 580.91029,197.46697 580.90625,197.5 C 580.91029,197.53303 580.92091,197.56491 580.9375,197.59375 C 580.94492,197.61595 580.95544,197.63699 580.96875,197.65625 C 580.97822,197.66757 580.98868,197.67803 581,197.6875 C 581.02605,197.71524 581.05813,197.73662 581.09375,197.75 C 581.12472,197.75595 581.15653,197.75595 581.1875,197.75 C 581.20825,197.75263 581.22925,197.75263 581.25,197.75 C 584.80749,196.49944 588.39295,195.15225 592.15625,195.5 C 593.28385,195.58867 594.35616,196.00271 595.46875,196.375 C 595.50974,196.38565 595.55276,196.38565 595.59375,196.375 C 595.62678,196.37096 595.65866,196.36034 595.6875,196.34375 C 595.7097,196.33633 595.73074,196.32581 595.75,196.3125 C 598.71379,193.45164 603.00891,192.72955 606.96875,191.90625 C 606.98007,191.89678 606.99053,191.88632 607,191.875 C 607.19563,191.80037 607.32956,191.73576 607.4375,191.625 C 607.49147,191.56962 607.55414,191.50784 607.5625,191.40625 C 607.57086,191.30466 607.51945,191.21518 607.46875,191.15625 C 607.36735,191.03839 607.25573,190.98239 607.125,190.9375 C 606.99427,190.89261 606.8215,190.87546 606.65625,190.84375 C 605.99526,190.71692 605.12704,190.6454 604.8125,190.625 C 604.80209,190.62434 604.79166,190.62434 604.78125,190.625 C 603.91011,190.58739 603.02603,190.56773 602.125,190.59375 z"
           transform="translate(-806.724,-92.8004)"
           id="path18250"
           style="fill:#000000;fill-opacity:1;fill-rule:evenodd;stroke:none;stroke-width:1pt;stroke-linecap:butt;stroke-linejoin:miter;stroke-opacity:1" />
        <path
           d="M -224.344,103.835 C -219.295,101.9 -214.705,101.331 -211.263,102.86 C -208.45,100.119 -202.237,98.6242 -200.227,98.6199 C -207.528,97.8352 -210.552,99.4967 -212,100.582 C -216.698,100.015 -221.096,100.522 -224.344,103.834"
           id="path18252"
           style="fill:#ffffff;fill-opacity:1;stroke:none" />
      </g>
      <g
         transform="matrix(2.41517,0,0,2.41517,665.699,-197.189)"
         id="g18254">
        <path
           d="M 596.25,27.53125 C 587.9033,27.701471 579.93436,30.011449 573.84375,35.03125 C 565.49276,31.223728 554.44432,30.751141 544.375,32.28125 C 538.97209,33.102263 533.8987,34.480363 529.6875,36.34375 C 525.4884,38.201779 521.99675,40.484175 520.1875,43.8125 C 519.57732,44.883163 519.7128,46.206199 520.46875,47.15625 C 521.22471,48.106278 522.5049,48.470375 523.65625,48.125 C 544.63433,42.131263 561.86554,43.038041 573.6875,52.875 C 574.80806,53.806374 576.46471,53.801852 577.5625,52.84375 C 587.80668,43.812696 604.05857,37.910216 621.5625,38.875 C 622.98852,38.943575 624.2874,37.997938 624.625,36.625 C 624.96264,35.252044 624.25302,33.783013 622.96875,33.1875 C 614.73544,29.461107 605.28688,27.346954 596.25,27.53125 z"
           transform="matrix(0.292292,-6.77077e-2,6.77077e-2,0.292292,-381.543,134.276)"
           id="path18256"
           style="fill:#000000;fill-opacity:1;fill-rule:evenodd;stroke:none;stroke-width:1pt;stroke-linecap:butt;stroke-linejoin:miter;stroke-opacity:1" />
        <path
           d="M -225.696,112.15 C -219.345,108.564 -214.201,107.915 -209.842,110.097 C -206.945,105.454 -199.625,102.766 -197.16,102.691 C -204.796,101.053 -210.086,104.587 -211.05,106.575 C -215.328,105.394 -224.104,108.305 -225.696,112.149"
           id="path18258"
           style="fill:#ffffff;fill-opacity:1;stroke:none" />
      </g>
      <g
         transform="matrix(1.14159,0,0,1.14159,54.3849,-259.674)"
         id="g18472">
        <path
           d="M 134.221,257.626 C 146.813,285.3 116.952,318.766 134.221,346.078 L 138.68,346.078 C 121.411,318.766 151.272,285.3 138.68,257.626 L 134.221,257.626 z"
           id="path18228"
           style="fill:#000000;fill-opacity:0.0798122;fill-rule:nonzero;stroke:none;stroke-width:1.25;stroke-linecap:round;stroke-linejoin:round;stroke-miterlimit:4;stroke-opacity:1" />
        <path
           d="M 135.222,257.626 C 147.814,285.3 117.953,318.766 135.222,346.078 L 138.68,346.078 C 121.411,318.766 151.272,285.3 138.68,257.626 L 135.222,257.626 z"
           id="path18230"
           style="fill:#000000;fill-opacity:0.13145501;fill-rule:nonzero;stroke:none;stroke-width:1.25;stroke-linecap:round;stroke-linejoin:round;stroke-miterlimit:4;stroke-opacity:1" />
        <path
           d="M 136.393,257.626 C 148.985,285.3 119.124,318.766 136.393,346.078 L 138.68,346.078 C 121.411,318.766 151.272,285.3 138.68,257.626 L 136.393,257.626 z"
           id="path18232"
           style="fill:#000000;fill-opacity:0.19718299;fill-rule:nonzero;stroke:none;stroke-width:1.25;stroke-linecap:round;stroke-linejoin:round;stroke-miterlimit:4;stroke-opacity:1" />
        <path
           d="M 137.564,257.626 C 150.156,285.3 120.295,318.766 137.564,346.078 L 138.68,346.078 C 121.411,318.766 151.272,285.3 138.68,257.626 L 137.564,257.626 z"
           id="path18234"
           style="fill:#000000;fill-opacity:0.26760601;fill-rule:nonzero;stroke:none;stroke-width:1.25;stroke-linecap:round;stroke-linejoin:round;stroke-miterlimit:4;stroke-opacity:1" />
        <path
           d="M 133.134,257.626 C 145.726,285.3 115.865,318.766 133.134,346.078 L 138.68,346.078 C 121.411,318.766 151.272,285.3 138.68,257.626 L 133.134,257.626 z"
           id="path18470"
           style="fill:#000000;fill-opacity:0.0798122;fill-rule:nonzero;stroke:none;stroke-width:1.25;stroke-linecap:round;stroke-linejoin:round;stroke-miterlimit:4;stroke-opacity:1" />
      </g>
      <path
         d="M 116.206,34.4298 L 212.552,34.4298 C 222.295,54.4671 209.954,80.3972 206.909,103.509 L 116.206,103.509 L 116.206,34.4298 z"
         id="path22471"
         style="fill:url(#linearGradient4254);fill-opacity:1;fill-rule:nonzero;stroke:none;stroke-width:1.25;stroke-linecap:round;stroke-linejoin:round;stroke-miterlimit:4;stroke-opacity:1" />
      <path
         d="M 116.206,135.402 L 211.898,135.402 C 201.683,118.171 206.228,101.345 210.715,83.5374 L 116.206,83.2034 L 116.206,135.402 z"
         id="path22647"
         style="fill:url(#linearGradient4251);fill-opacity:1;fill-rule:nonzero;stroke:none;stroke-width:1.25;stroke-linecap:round;stroke-linejoin:round;stroke-miterlimit:4;stroke-opacity:1" />
      <path
         d="M 189.022,118.622 C 180.739,124.294 161.832,124.024 157.88,117.416 C 149.901,104.072 166.879,106.493 168.033,97.1356 C 169.568,84.6934 151.318,84.6378 145.681,95.6429"
         id="rect18220"
         style="fill:none;fill-opacity:0.32863799;fill-rule:nonzero;stroke:#fffeff;stroke-width:8.33205032;stroke-linecap:round;stroke-linejoin:round;stroke-miterlimit:4;stroke-opacity:0.69803898" />
    </g>
  </g>
</svg>
