<?xml version="1.0" encoding="UTF-8" standalone="no"?>
<svg
   xmlns:svg="http://www.w3.org/2000/svg"
   xmlns="http://www.w3.org/2000/svg"
   xmlns:xlink="http://www.w3.org/1999/xlink"
   height="102"
   width="102">
  <g transform="translate(-10,-34)"
     >
    <linearGradient
       id="linearGradient11377">
      <stop
         style="stop-color:white;stop-opacity:0;"
         offset="0"
         />
      <stop
         style="stop-color:white;stop-opacity:0.57547170;"
         offset="1"
         />
    </linearGradient>
    <linearGradient
       id="linearGradient7431">
      <stop
         style="stop-color:white;stop-opacity:0;"
         offset="0"
         />
      <stop
         style="stop-color:white;stop-opacity:0.85849059;"
         offset="0.72"
         />
      <stop
         style="stop-color:white;stop-opacity:0.70754719;"
         offset="0.90"
         />
      <stop
         style="stop-color:white;stop-opacity:0.32075471;"
         offset="1"
         />
    </linearGradient>
    <linearGradient
       id="linearGradient11367">
      <stop
         style="stop-color:black;stop-opacity:0;"
         offset="0"
         />
      <stop
         style="stop-color:black;stop-opacity:0.25471699;"
         offset="0.72"
         />
      <stop
         style="stop-color:black;stop-opacity:0.12549020;"
         offset="0.91"
         />
      <stop
         style="stop-color:black;stop-opacity:0;"
         offset="1"
         />
    </linearGradient>
    <linearGradient
       xlink:href="#linearGradient11377"
       id="linearGradient4245"
       gradientUnits="userSpaceOnUse"
       gradientTransform="matrix(4.593780,0,0,0.359494,-1920.951,118.2093)"
       spreadMethod="pad"
       x1="436.48828"
       y1="-278.91284"
       x2="436.51190"
       y2="-299.88681" />
    <linearGradient
       xlink:href="#linearGradient7431"
       id="linearGradient4228"
       gradientUnits="userSpaceOnUse"
       gradientTransform="matrix(4.891821,0,0,2.924783,-1919.135,-772.5916)"
       spreadMethod="pad"
       x1="406.06488"
       y1="290.50256"
       x2="406.06485"
       y2="276.29453" />
    <linearGradient
       xlink:href="#linearGradient11367"
       id="linearGradient4225"
       gradientUnits="userSpaceOnUse"
       gradientTransform="matrix(1.609763,0,0,-0.739926,-42.06132,-219.4883)"
       spreadMethod="pad"
       x1="68.374298"
       y1="-410.09869"
       x2="67.912170"
       y2="-478.50790" />
    <path
       style="fill:#bc4801;fill-opacity:1;fill-rule:evenodd;stroke:none;stroke-width:1.25;stroke-linecap:round;stroke-linejoin:round;stroke-miterlimit:4;stroke-opacity:1"
       d="M 10.275768,34.429751 L 106.79303,34.429751 C 121.16796,66.022260 87.078881,104.22238 106.79303,135.40194 L 10.275768,135.40194 L 10.275768,34.429751 z "
       id="path18506"
        />
    <path
       style="fill:#1d4659;fill-opacity:1;fill-rule:evenodd;stroke:none;stroke-width:1.25;stroke-linecap:round;stroke-linejoin:round;stroke-miterlimit:4;stroke-opacity:1"
       d="M 10.275768,34.429751 L 36.454870,34.429751 C 50.829796,66.022260 16.740718,104.22238 36.454870,135.40194 L 10.275768,135.40194 L 10.275768,34.429751 z "
       id="path18508"
        />
    <rect
       style="fill:url(#linearGradient4245);fill-opacity:1;fill-rule:nonzero;stroke:none;stroke-width:1.25;stroke-linecap:round;stroke-linejoin:round;stroke-miterlimit:4;stroke-opacity:1"
       id="rect18510"
       width="101.08916"
       height="7.9108753"
       x="34.429752"
       y="10.275768"
       transform="matrix(0,1,1,0,0,0)" />
    <path
       style="fill:black;fill-opacity:0.079812177;fill-rule:nonzero;stroke:none;stroke-width:1.25;stroke-linecap:round;stroke-linejoin:round;stroke-miterlimit:4;stroke-opacity:1"
       d="M 28.929838,34.429763 C 43.304764,66.022283 9.2156857,104.22675 28.929838,135.40631 L 35.674820,135.40631 C 15.960668,104.22675 50.049747,66.022283 35.674820,34.429763 L 28.929838,34.429763 z "
       id="path18514" />
    <path
       style="fill:black;fill-opacity:0.13145538;fill-rule:nonzero;stroke:none;stroke-width:1.25;stroke-linecap:round;stroke-linejoin:round;stroke-miterlimit:4;stroke-opacity:1"
       d="M 30.486284,34.429763 C 44.861097,66.022283 10.772018,104.22675 30.486284,135.40631 L 35.674820,135.40631 C 15.960668,104.22675 50.049747,66.022283 35.674820,34.429763 L 30.486284,34.429763 z "
       id="path18516"
        />
    <path
       style="fill:black;fill-opacity:0.19718309;fill-rule:nonzero;stroke:none;stroke-width:1.25;stroke-linecap:round;stroke-linejoin:round;stroke-miterlimit:4;stroke-opacity:1"
       d="M 32.237144,34.429763 C 46.612071,66.022283 12.522992,104.22675 32.237144,135.40631 L 35.674820,135.40631 C 15.960668,104.22675 50.049747,66.022283 35.674820,34.429763 L 32.237144,34.429763 z "
       id="path18518"
        />
    <path
       style="fill:black;fill-opacity:0.26760563;fill-rule:nonzero;stroke:none;stroke-width:1.25;stroke-linecap:round;stroke-linejoin:round;stroke-miterlimit:4;stroke-opacity:1"
       d="M 33.988004,34.429763 C 48.362930,66.022283 14.273852,104.22675 33.988004,135.40631 L 35.674820,135.40631 C 15.960668,104.22675 50.049747,66.022283 35.674820,34.429763 L 33.988004,34.429763 z "
       id="path18520"
        />
    <path
       style="stroke-opacity:1;stroke-linejoin:miter;stroke-linecap:butt;stroke-width:1pt;stroke:none;fill-rule:evenodd;fill-opacity:1;fill:black"
       id="path18526"
       d="M 602.12500,190.59375 C 599.45874,190.67075 596.74504,191.16798 594.53125,192.78125 C 591.51460,192.34561 588.36640,192.55749 585.50000,193.68750 C 583.62824,194.43267 582.15635,195.77855 580.96875,197.34375 C 580.95544,197.36301 580.94492,197.38405 580.93750,197.40625 C 580.92091,197.43509 580.91029,197.46697 580.90625,197.50000 C 580.91029,197.53303 580.92091,197.56491 580.93750,197.59375 C 580.94492,197.61595 580.95544,197.63699 580.96875,197.65625 C 580.97822,197.66757 580.98868,197.67803 581,197.68750 C 581.02605,197.71524 581.05813,197.73662 581.09375,197.75000 C 581.12472,197.75595 581.15653,197.75595 581.18750,197.75000 C 581.20825,197.75263 581.22925,197.75263 581.25000,197.75000 C 584.80749,196.49944 588.39295,195.15225 592.15625,195.50000 C 593.28385,195.58867 594.35616,196.00271 595.46875,196.37500 C 595.50974,196.38565 595.55276,196.38565 595.59375,196.37500 C 595.62678,196.37096 595.65866,196.36034 595.68750,196.34375 C 595.70970,196.33633 595.73074,196.32581 595.75000,196.31250 C 598.71379,193.45164 603.00891,192.72955 606.96875,191.90625 C 606.98007,191.89678 606.99053,191.88632 607,191.87500 C 607.19563,191.80037 607.32956,191.73576 607.43750,191.62500 C 607.49147,191.56962 607.55414,191.50784 607.56250,191.40625 C 607.57086,191.30466 607.51945,191.21518 607.46875,191.15625 C 607.36735,191.03839 607.25573,190.98239 607.12500,190.93750 C 606.99427,190.89261 606.82150,190.87546 606.65625,190.84375 C 605.99526,190.71692 605.12704,190.64540 604.81250,190.62500 C 604.80209,190.62434 604.79166,190.62434 604.78125,190.62500 C 603.91011,190.58739 603.02603,190.56773 602.12500,190.59375 z "
       transform="matrix(2.415171,0,0,2.415171,-1388.609,-421.3179)" />
    <path
       id="path18528"
       d="M 17.938818,53.589912 C 30.133304,48.916291 41.218962,47.541495 49.531121,51.234317 C 56.325192,44.616485 71.331305,41.005298 76.185468,40.994887 C 58.552095,39.099513 51.249560,43.112563 47.751037,45.734492 C 36.406238,44.363474 25.782697,45.589532 17.939047,53.588702"
       style="fill:white;fill-opacity:1;stroke:none" />
    <path
       style="stroke-opacity:1;stroke-linejoin:miter;stroke-linecap:butt;stroke-width:1pt;stroke:none;fill-rule:evenodd;fill-opacity:1;fill:black"
       id="path18532"
       d="M 596.25000,27.531250 C 587.90330,27.701471 579.93436,30.011449 573.84375,35.031250 C 565.49276,31.223728 554.44432,30.751141 544.37500,32.281250 C 538.97209,33.102263 533.89870,34.480363 529.68750,36.343750 C 525.48840,38.201779 521.99675,40.484175 520.18750,43.812500 C 519.57732,44.883163 519.71280,46.206199 520.46875,47.156250 C 521.22471,48.106278 522.50490,48.470375 523.65625,48.125000 C 544.63433,42.131263 561.86554,43.038041 573.68750,52.875000 C 574.80806,53.806374 576.46471,53.801852 577.56250,52.843750 C 587.80668,43.812696 604.05857,37.910216 621.56250,38.875000 C 622.98852,38.943575 624.28740,37.997938 624.62500,36.625000 C 624.96264,35.252044 624.25302,33.783013 622.96875,33.187500 C 614.73544,29.461107 605.28688,27.346954 596.25000,27.531250 z "
       transform="matrix(0.705935,-0.163526,0.163526,0.705935,-361.7232,127.1102)" />
    <path
       id="path18534"
       d="M 14.674208,73.671166 C 30.012067,65.011403 42.434985,63.444922 52.964117,68.713882 C 59.960478,57.500915 77.640085,51.008772 83.592117,50.826061 C 65.151867,46.872042 52.375512,55.405226 50.045294,60.206922 C 39.713088,57.355019 18.518747,64.386427 14.673980,73.670150"
       style="fill:white;fill-opacity:1;stroke:none" />
    <g
       id="g21224"
       transform="matrix(1.141592,0,0,1.141592,-560.6522,-126.1228)">
      <path
         style="fill:black;fill-opacity:0.079812177;fill-rule:nonzero;stroke:none;stroke-width:1.25;stroke-linecap:round;stroke-linejoin:round;stroke-miterlimit:4;stroke-opacity:1"
         d="M 580.18270,140.63916 C 592.77460,168.31325 562.91360,201.77921 580.18270,229.09156 L 584.64170,229.09156 C 567.37270,201.77921 597.23370,168.31325 584.64170,140.63916 L 580.18270,140.63916 z "
         id="path18542" />
      <path
         style="fill:black;fill-opacity:0.13145538;fill-rule:nonzero;stroke:none;stroke-width:1.25;stroke-linecap:round;stroke-linejoin:round;stroke-miterlimit:4;stroke-opacity:1"
         d="M 581.18360,140.63916 C 593.77560,168.31325 563.91460,201.77921 581.18360,229.09156 L 584.64170,229.09156 C 567.37270,201.77921 597.23370,168.31325 584.64170,140.63916 L 581.18360,140.63916 z "
         id="path18544"
          />
      <path
         style="fill:black;fill-opacity:0.19718309;fill-rule:nonzero;stroke:none;stroke-width:1.25;stroke-linecap:round;stroke-linejoin:round;stroke-miterlimit:4;stroke-opacity:1"
         d="M 582.35500,140.63916 C 594.94700,168.31325 565.08600,201.77921 582.35500,229.09156 L 584.64170,229.09156 C 567.37270,201.77921 597.23370,168.31325 584.64170,140.63916 L 582.35500,140.63916 z "
         id="path18546"
          />
      <path
         style="fill:black;fill-opacity:0.26760563;fill-rule:nonzero;stroke:none;stroke-width:1.25;stroke-linecap:round;stroke-linejoin:round;stroke-miterlimit:4;stroke-opacity:1"
         d="M 583.52640,140.63916 C 596.11840,168.31325 566.25740,201.77921 583.52640,229.09156 L 584.64170,229.09156 C 567.37270,201.77921 597.23370,168.31325 584.64170,140.63916 L 583.52640,140.63916 z "
         id="path18548"
          />
      <path
         style="fill:black;fill-opacity:0.079812177;fill-rule:nonzero;stroke:none;stroke-width:1.25;stroke-linecap:round;stroke-linejoin:round;stroke-miterlimit:4;stroke-opacity:1"
         d="M 579.09560,140.63916 C 591.68760,168.31325 561.82660,201.77921 579.09560,229.09156 L 584.64170,229.09156 C 567.37270,201.77921 597.23370,168.31325 584.64170,140.63916 L 579.09560,140.63916 z "
         id="path18550" />
    </g>
    <path
       id="path22459"
       d="M 10.275768,34.429751 L 106.69438,34.332075 C 116.25880,55.324519 104.70749,78.834372 100.97842,103.50916 L 10.275768,103.50916 L 10.275768,34.429751 z "
       style="fill:url(#linearGradient4228);fill-opacity:1;fill-rule:nonzero;stroke:none;stroke-width:1.25;stroke-linecap:round;stroke-linejoin:round;stroke-miterlimit:4;stroke-opacity:1" />
    <path
       style="fill:url(#linearGradient4225);fill-opacity:1;fill-rule:nonzero;stroke:none;stroke-width:1.25;stroke-linecap:round;stroke-linejoin:round;stroke-miterlimit:4;stroke-opacity:1"
       d="M 10.275768,135.40194 L 106.48101,135.40194 C 96.088748,117.87072 100.21782,100.75226 104.78270,82.634695 L 10.275768,82.294866 L 10.275768,135.40194 z "
       id="path22477"
        />
    <path
       id="path21033"
       style="fill:none;fill-opacity:1;fill-rule:nonzero;stroke:#fffeff;stroke-width:6.3800259;stroke-linecap:round;stroke-linejoin:miter;stroke-miterlimit:4;stroke-opacity:0.69803923"
       d="M 78.474474,90.937596 C 78.474474,97.429202 70.326133,102.69772 60.286060,102.69772 C 50.246215,102.69772 42.097873,97.429202 42.097873,90.937596 C 42.097873,84.445991 50.246215,79.177475 60.286060,79.177475 C 68.993096,79.177475 78.333373,83.534292 78.641032,90.839910 M 78.487374,89.915529 L 78.474474,114.15600 C 78.474474,120.64761 70.326133,125.91612 60.286060,125.91612 C 50.246215,125.91612 42.097873,120.64761 42.097873,114.15600 L 42.052552,90.987062"
        />
  </g>
</svg>
